<mxfile host="app.diagrams.net" modified="2023-11-02T01:54:44.628Z" agent="Mozilla/5.0 (Macintosh; Intel Mac OS X 10_15_7) AppleWebKit/537.36 (KHTML, like Gecko) Chrome/118.0.0.0 Safari/537.36" version="21.6.9" etag="DGRUvSsqD7Qr6AZnA_g3" type="github">
  <diagram name="第 1 页" id="UX-zpANu9l02L_2xd9A8">
    <mxGraphModel>
      <root>
        <mxCell id="0" />
        <mxCell id="1" parent="0" />
      </root>
    </mxGraphModel>
  </diagram>
</mxfile>
